#!OML:ASF F:\VICON\USERDATA\INSTALL\Justin_Nancy\Justin_Nancy.ASF
:FULLY-SPECIFIED
:DEGREES
518
root 12.508 17.4178 32.4894 -1.53 33.1856 -3.90616
lowerback 7.45156 1.6701 3.41941
upperback 0.00588711 2.63434 2.33709
thorax -4.13138 1.2653 0.216672
lowerneck -15.1694 -3.01992 -7.09873
upperneck 22.4515 -2.86135 2.32288
head 9.77232 -1.62965 1.63615
rclavicle -2.85753e-014 -3.97569e-015
rhumerus -30.9194 -9.44074 -78.733
rradius 37.1203
rwrist 2.79739
rhand -13.6107 14.1401
rfingers 7.12502
rthumb 12.5045 -15.4658
lclavicle -2.85753e-014 -3.97569e-015
lhumerus -36.0917 13.0813 83.4748
lradius 25.0484
lwrist -12.8451
lhand -16.0314 18.8995
lfingers 7.12502
lthumb 10.1699 48.6337
rfemur 0.150841 5.69505 30.2741
rtibia 18.2464
rfoot -12.8858 -6.10458
rtoes 12.5336
lfemur -30.6856 -1.35748 -14.9491
ltibia 41.3976
lfoot -5.38784 7.46231
ltoes -4.46004
519
root 12.5913 17.4095 32.5944 -1.22537 33.1503 -3.75696
lowerback 7.36145 1.76666 3.46829
upperback -0.0732139 2.75927 2.21713
thorax -4.15228 1.3236 0.0538386
lowerneck -15.3314 -3.11786 -7.20559
upperneck 22.6321 -2.99348 2.46578
head 9.87823 -1.68438 1.68602
rclavicle 7.26309e-014 -7.95139e-016
rhumerus -30.8804 -9.62251 -78.6905
rradius 37.5052
rwrist 2.63331
rhand -13.6658 14.1406
rfingers 7.12502
rthumb 12.4513 -15.4685
lclavicle 7.26309e-014 -7.95139e-016
lhumerus -36.3438 12.715 83.5972
lradius 25.242
lwrist -12.3019
lhand -15.942 19.5839
lfingers 7.12502
lthumb 10.2561 49.3139
rfemur 0.60408 5.38751 30.0651
rtibia 17.8922
rfoot -13.0979 -5.78111
rtoes 11.9214
lfemur -30.6274 -2.17764 -14.9567
ltibia 38.6509
lfoot -4.76514 8.03933
ltoes -6.13204
520
root 12.6671 17.4004 32.7167 -1.07533 33.0085 -3.59676
lowerback 7.26035 1.86151 3.2711
upperback -0.0619907 2.86093 2.1795
thorax -4.08887 1.37856 0.118066
lowerneck -15.488 -3.13411 -7.35953
upperneck 22.7736 -3.00321 2.62423
head 9.96423 -1.68438 1.7655
rclavicle 8.17502e-015 -1.27222e-014
rhumerus -30.764 -9.42369 -78.7381
rradius 37.8407
rwrist 2.25409
rhand -13.875 13.9612
rfingers 7.12502
rthumb 12.2496 -15.6601
lclavicle 8.17502e-015 -1.27222e-014
lhumerus -36.3604 13.2451 83.4248
lradius 25.0075
lwrist -12.6058
lhand -15.4127 19.5671
lfingers 7.12502
lthumb 10.7667 49.2711
rfemur 1.25692 5.43463 29.9796
rtibia 17.588
rfoot -13.3611 -5.77859
rtoes 11.6887
lfemur -30.3799 -2.68357 -14.9693
ltibia 35.9326
lfoot -4.73678 8.7519
ltoes -8.93635
521
root 12.7428 17.3948 32.8444 -1.07534 32.7819 -3.67646
lowerback 7.12755 1.93253 3.1786
upperback -0.0253972 2.94208 2.23038
thorax -3.98188 1.42319 0.219525
lowerneck -15.0075 -3.22759 -7.5777
upperneck 22.4349 -3.1548 2.7834
head 9.76839 -1.75471 1.84014
rclavicle 7.90914e-014 2.06736e-014
rhumerus -30.439 -9.24193 -78.7869
rradius 37.9355
rwrist 2.11243
rhand -13.6647 13.9554
rfingers 7.12502
rthumb 12.4524 -15.6537
lclavicle 7.90914e-014 2.06736e-014
lhumerus -36.1291 14.5827 82.9061
lradius 24.1636
lwrist -13.8052
lhand -15.2171 18.7117
lfingers 7.12502
lthumb 10.9554 48.4059
rfemur 1.92548 5.63557 30.1529
rtibia 17.3386
rfoot -13.6561 -5.88795
rtoes 11.2444
lfemur -30.0927 -3.03561 -14.7135
ltibia 33.2886
lfoot -5.12025 9.45852
ltoes -10.9129
522
root 12.8255 17.3825 32.9611 -0.953961 32.6716 -3.64724
lowerback 7.18875 2.00043 3.26688
upperback -0.164597 3.04399 2.1449
thorax -4.1501 1.46717 0.0664419
lowerneck -15.1922 -3.11169 -7.4257
upperneck 22.6176 -2.98467 2.6561
head 9.85337 -1.67779 1.79209
rclavicle 4.21175e-014 -1.15295e-014
rhumerus -30.4523 -9.15856 -78.8076
rradius 38.1771
rwrist 1.87798
rhand -13.3181 13.7026
rfingers 7.12502
rthumb 12.7865 -15.8858
lclavicle 4.21175e-014 -1.15295e-014
lhumerus -36.2429 15.2263 82.4988
lradius 23.7273
lwrist -14.3845
lhand -15.3877 18.5596
lfingers 7.12502
lthumb 10.7908 48.2625
rfemur 2.50292 5.55067 30.112
rtibia 17.0479
rfoot -14.0053 -5.80641
rtoes 10.2917
lfemur -29.8661 -3.47324 -14.6081
ltibia 30.7948
lfoot -5.63683 9.67987
ltoes -11.0308
523
root 12.9127 17.3626 33.0746 -0.800153 32.6957 -3.57458
lowerback 7.18847 2.04866 3.44406
upperback -0.264516 3.11809 1.96718
thorax -4.23303 1.4955 -0.225602
lowerneck -15.4566 -2.99998 -7.10107
upperneck 22.7344 -2.86981 2.56293
head 9.9302 -1.60702 1.71895
rclavicle 2.01195e-013 -3.18055e-015
rhumerus -30.5165 -9.52678 -78.8383
rradius 38.5079
rwrist 1.88869
rhand -12.93 13.5497
rfingers 7.12502
rthumb 13.1607 -16.0149
lclavicle 2.01195e-013 -3.18055e-015
lhumerus -36.3401 15.4264 82.1868
lradius 23.5128
lwrist -14.8757
lhand -15.5712 18.7531
lfingers 7.12502
lthumb 10.6138 48.4651
rfemur 3.14601 5.09671 29.9318
rtibia 16.594
rfoot -14.3094 -5.35826
rtoes 9.84564
lfemur -29.7785 -3.91851 -14.617
ltibia 28.5943
lfoot -6.10847 9.36586
ltoes -11.4645
524
root 12.9993 17.3489 33.1869 -0.486304 32.6543 -3.37878
lowerback 6.88127 2.11288 3.39285
upperback -0.165338 3.17766 1.92196
thorax -3.95542 1.53111 -0.234772
lowerneck -14.2007 -3.37452 -7.21955
upperneck 21.4263 -3.43061 2.44486
head 9.2654 -1.88693 1.63128
rclavicle 1.25483e-014 -9.14409e-015
rhumerus -30.1189 -9.5146 -78.7697
rradius 38.5963
rwrist 1.82097
rhand -12.9786 13.6606
rfingers 7.12502
rthumb 13.1138 -15.9071
lclavicle 1.25483e-014 -9.14409e-015
lhumerus -36.0453 15.9092 82.1492
lradius 23.1479
lwrist -15.5887
lhand -15.6062 19.0085
lfingers 7.12502
lthumb 10.5801 48.7222
rfemur 3.73756 4.84491 29.6686
rtibia 16.0458
rfoot -14.3768 -5.05328
rtoes 10.0631
lfemur -29.935 -3.92063 -14.869
ltibia 26.7267
lfoot -6.50996 8.81517
ltoes -12.2854
525
root 13.0816 17.3333 33.3051 -0.429872 32.61 -3.51459
lowerback 6.61725 2.07695 3.4075
upperback -0.0290381 3.11964 2.07659
thorax -3.67506 1.5098 -0.0638119
lowerneck -16.4535 -3.56074 -9.64009
upperneck 23.3132 -3.37444 4.47177
head 10.4456 -1.83975 2.75099
rclavicle -8.94531e-016 -9.14409e-015
rhumerus -29.5857 -9.17284 -78.7369
rradius 38.4908
rwrist 1.8651
rhand -13.3621 14.236
rfingers 7.12502
rthumb 12.7441 -15.3551
lclavicle -8.94531e-016 -9.14409e-015
lhumerus -36.0543 15.7653 82.5287
lradius 23.3863
lwrist -15.1611
lhand -15.3482 19.9707
lfingers 7.12502
lthumb 10.8289 49.6715
rfemur 4.4934 4.62764 29.77
rtibia 15.4069
rfoot -14.31 -4.89986
rtoes 8.98426
lfemur -30.0921 -4.01415 -14.7411
ltibia 25.1965
lfoot -6.9009 8.48907
ltoes -11.8721
526
root 13.1638 17.3207 33.4238 -0.626257 32.534 -3.98675
lowerback 6.6384 2.06997 3.85167
upperback -0.122583 3.15272 2.13784
thorax -3.76357 1.51639 -0.253656
lowerneck -15.4244 -2.9224 -7.11195
upperneck 21.7444 -2.65417 2.11046
head 9.55747 -1.55139 1.58508
rclavicle 2.08475e-014 5.1684e-015
rhumerus -29.5669 -9.14437 -78.8135
rradius 38.6534
rwrist 1.90311
rhand -13.4564 14.065
rfingers 7.12502
rthumb 12.6532 -15.5317
lclavicle 2.08475e-014 5.1684e-015
lhumerus -36.4497 14.6233 82.9462
lradius 23.8814
lwrist -13.9415
lhand -15.5758 20.851
lfingers 7.12502
lthumb 10.6094 50.5632
rfemur 5.33001 4.64331 30.217
rtibia 14.716
rfoot -14.3853 -4.84121
rtoes 8.72743
lfemur -30.2018 -4.05475 -14.3176
ltibia 23.9443
lfoot -7.50593 8.08152
ltoes -13.2576
527
root 13.2479 17.3074 33.5413 -0.591227 32.5518 -4.28273
lowerback 6.57292 2.09413 4.17834
upperback -0.303964 3.21537 2.15581
thorax -3.89714 1.53699 -0.423724
lowerneck -13.8789 -2.91055 -6.04639
upperneck 20.2583 -2.77959 1.07581
head 8.73008 -1.62697 1.051
rclavicle -6.8531e-014 5.56597e-015
rhumerus -29.6145 -9.21896 -78.7261
rradius 38.6959
rwrist 1.9365
rhand -13.5395 13.9232
rfingers 7.12502
rthumb 12.5731 -15.6785
lclavicle -6.8531e-014 5.56597e-015
lhumerus -36.736 13.9436 83.1436
lradius 24.012
lwrist -13.4659
lhand -15.6369 21.6999
lfingers 7.12502
lthumb 10.5504 51.4151
rfemur 6.02957 4.7115 30.4747
rtibia 13.9475
rfoot -14.3414 -4.82794
rtoes 7.82145
lfemur -30.5239 -4.04522 -14.1568
ltibia 23.0172
lfoot -8.51908 7.30034
ltoes -16.3137
528
root 13.3329 17.2984 33.6639 -0.456892 32.5648 -4.29503
lowerback 6.33225 2.15469 4.20772
upperback -0.299445 3.28272 2.14183
thorax -3.75216 1.5727 -0.450088
lowerneck -14.5645 -3.58317 -8.57682
upperneck 21.4772 -3.60611 3.48087
head 9.41006 -1.96497 2.18846
rclavicle 2.22887e-014 2.38542e-015
rhumerus -29.4419 -9.44739 -78.6215
rradius 38.6148
rwrist 2.03279
rhand -13.5251 14.2974
rfingers 7.12502
rthumb 12.587 -15.3034
lclavicle 2.22887e-014 2.38542e-015
lhumerus -36.6002 13.9031 83.257
lradius 23.8625
lwrist -13.5134
lhand -15.457 24.7394
lfingers 7.12502
lthumb 10.7239 54.4457
rfemur 6.66098 4.74972 30.4829
rtibia 13.3671
rfoot -14.2785 -4.78071
rtoes 7.02123
lfemur -30.6995 -4.10352 -14.25
ltibia 22.2978
lfoot -9.33982 6.23688
ltoes -15.1743
529
root 13.4197 17.2857 33.784 -0.374663 32.6868 -4.37105
lowerback 6.09515 2.13393 4.27065
upperback -0.307099 3.24701 2.17332
thorax -3.62649 1.55675 -0.439272
lowerneck -14.6118 -3.55826 -8.61223
upperneck 21.4871 -3.56585 3.51256
head 9.42094 -1.94534 2.21013
rclavicle -9.72802e-014 -2.62396e-014
rhumerus -29.2908 -9.36955 -78.5711
rradius 38.6154
rwrist 1.9018
rhand -13.288 14.2924
rfingers 7.12502
rthumb 12.8155 -15.2943
lclavicle -9.72802e-014 -2.62396e-014
lhumerus -36.4454 14.5033 83.1532
lradius 23.5227
lwrist -14.0166
lhand -15.5456 26.0533
lfingers 7.12502
lthumb 10.6385 55.764
rfemur 7.18836 4.73848 30.5589
rtibia 13.0526
rfoot -14.1713 -4.83729
rtoes 6.29852
lfemur -30.7682 -4.56234 -14.1632
ltibia 21.7567
lfoot -10.0307 5.5608
ltoes -12.9066
530
root 13.5049 17.2603 33.8981 -0.269377 32.7995 -4.30225
lowerback 6.12077 2.12484 4.24846
upperback -0.449193 3.238 2.10263
thorax -3.78588 1.54707 -0.503446
lowerneck -14.6734 -3.07754 -7.06629
upperneck 21.3316 -2.96326 2.20739
head 9.28897 -1.67948 1.57714
rclavicle -1.10325e-014 2.90226e-014
rhumerus -29.3357 -9.45068 -78.5859
rradius 38.5053
rwrist 1.80264
rhand -13.3125 14.5146
rfingers 7.12502
rthumb 12.792 -15.0735
lclavicle -1.10325e-014 2.90226e-014
lhumerus -36.4318 15.6859 82.379
lradius 22.7095
lwrist -15.6314
lhand -15.2807 21.156
lfingers 7.12502
lthumb 10.894 50.8534
rfemur 7.80783 4.74085 30.5175
rtibia 12.9206
rfoot -14.1459 -5.03715
rtoes 4.90038
lfemur -30.7502 -4.94293 -14.3126
ltibia 21.4075
lfoot -10.4597 5.38168
ltoes -15.8203
531
root 13.5878 17.2453 34.0068 -0.186279 32.9576 -4.31481
lowerback 6.23563 2.04915 4.35397
upperback -0.611673 3.15575 2.02203
thorax -4.01261 1.49646 -0.64647
lowerneck -14.7491 -3.18749 -6.99848
upperneck 21.8176 -3.12065 2.187
head 9.4795 -1.7531 1.53985
rclavicle -1.24613e-013 -1.47101e-014
rhumerus -29.4751 -9.58954 -78.658
rradius 38.4573
rwrist 2.05679
rhand -13.6223 14.8475
rfingers 7.12502
rthumb 12.4933 -14.759
lclavicle -1.24613e-013 -1.47101e-014
lhumerus -36.5595 15.7596 82.0099
lradius 22.3419
lwrist -16.1161
lhand -15.1682 17.7056
lfingers 7.12502
lthumb 11.0025 47.3972
rfemur 8.25277 4.53387 30.4959
rtibia 12.8333
rfoot -14.1285 -5.05654
rtoes 3.25281
lfemur -30.7814 -4.53995 -14.7325
ltibia 21.3597
lfoot -10.2479 4.72279
ltoes -19.5725
